<?xml version="1.0" encoding="utf-8"?>
<!-- Generator: Adobe Illustrator 24.1.0, SVG Export Plug-In . SVG Version: 6.00 Build 0)  -->
<svg version="1.1" id="Capa_1" xmlns="http://www.w3.org/2000/svg" xmlns:xlink="http://www.w3.org/1999/xlink" x="0px" y="0px"
	 width="149px" height="28.5px" viewBox="0 0 149 28.5" style="enable-background:new 0 0 149 28.5;" xml:space="preserve">
<style type="text/css">
	.st0{fill:#D34646;}
	.st1{fill:#07002A;}
</style>
<g>
	<path class="st0" d="M140.8,28.1c-1.2-0.8-2.4-1.8-3.4-2.9c-1.1-1.1-2.1-2.2-2.9-3.6c0,0,0-0.1-0.1-0.1c0-0.1-0.1-0.2-0.1-0.2
		c-0.5-1-0.8-2-0.7-3.2c0,0,0-0.1,0-0.1c0.4-2.3,2.4-3.8,4.8-3.6c0.1,0,0.2,0,0.3,0c0.8,0.2,1.6,0.5,2.2,1.1c0.1,0.1,0.1,0.2,0.2,0
		c0.2-0.2,0.5-0.4,0.7-0.6c0.5-0.3,1.1-0.5,1.7-0.6c2.3-0.3,4.4,1.2,4.8,3.5c0,0,0,0.1,0.1,0.1c0,0.4,0,0.8,0,1.2c0,0,0,0-0.1,0.1
		c-0.2,1.1-0.7,2-1.3,2.9c-1.2,1.8-2.8,3.3-4.4,4.7c-0.5,0.4-0.9,0.8-1.5,1.1C141.1,28.1,141,28.1,140.8,28.1z M135.4,18.9
		c0,0.6,0.3,1.3,0.8,2c1.3,2,3,3.6,4.8,5.2c0.1,0.1,0.2,0.1,0.3,0c1.6-1.3,3.2-2.8,4.4-4.5c0.5-0.7,0.9-1.4,1.1-2.2
		c0.4-1.6-0.8-3.2-2.5-3.2c-1.1,0-1.8,0.5-2.3,1.4c-0.2,0.4-0.4,0.6-0.9,0.6c-0.4,0-0.6-0.2-0.8-0.6c-0.5-1.1-1.7-1.6-2.9-1.3
		C136.2,16.5,135.4,17.5,135.4,18.9z"/>
	<path class="st0" d="M132.5,21.5c-0.1,0.6-0.4,0.8-1,0.9c-0.6,0-1.1,0-1.7,0c-0.2,0-0.2,0.1-0.2,0.2c0,0.8,0,1.5,0,2.3
		c0,0.5-0.4,0.9-0.8,0.9c-0.5,0-0.9-0.4-0.9-0.9c0-0.8,0-1.5,0-2.3c0-0.2-0.1-0.2-0.2-0.2c-1.8,0-3.2-1.3-3.2-3.2
		c0-0.2-0.1-0.2-0.2-0.2c-0.7,0-1.5,0-2.2,0c-0.6,0-0.9-0.3-0.9-0.8c0-0.5,0.4-0.9,0.9-0.9c0.7,0,1.5,0,2.2,0c0.2,0,0.2,0,0.2-0.2
		c0-0.9,0-1.8,0-2.7c0-0.2,0-0.2-0.2-0.2c-0.8,0-1.5,0-2.3,0c-0.7,0-1.1-0.6-0.8-1.2c0.2-0.3,0.4-0.5,0.8-0.5c0.8,0,1.5,0,2.3,0
		c0.2,0,0.2,0,0.2-0.2c0-0.9,0-1.8,0-2.7c0-0.2,0-0.2-0.2-0.2c-0.7,0-1.5,0-2.2,0c-0.6,0-1-0.3-1-0.9c0-0.5,0.4-0.8,1-0.8
		c0.7,0,1.5,0,2.2,0c0.2,0,0.2,0,0.2-0.2c0-1.9,1.3-3.2,3.2-3.2c0.2,0,0.2,0,0.2-0.2c0-0.7,0-1.5,0-2.2c0-0.6,0.3-1,0.8-1
		c0.5,0,0.9,0.4,0.9,1c0,0.7,0,1.5,0,2.2c0,0.2,0,0.2,0.2,0.2c0.9,0,1.8,0,2.7,0c0.2,0,0.2-0.1,0.2-0.2c0-0.7,0-1.5,0-2.2
		c0-0.6,0.3-1,0.8-1c0.5,0,0.9,0.4,0.9,1c0,0.7,0,1.5,0,2.2c0,0.2,0,0.2,0.2,0.2c0.9,0,1.8,0,2.7,0c0.2,0,0.2-0.1,0.2-0.2
		c0-0.8,0-1.5,0-2.3c0-0.7,0.6-1.1,1.2-0.9c0.3,0.1,0.5,0.4,0.6,0.8c0,0.8,0,1.5,0,2.3c0,0.2,0,0.3,0.3,0.3c1.8,0,3.1,1.4,3.2,3.2
		c0,0.2,0,0.3,0.3,0.3c0.7,0,1.5,0,2.2,0c0.5,0,0.9,0.4,0.9,0.9c0,0.5-0.4,0.8-0.9,0.9c-0.7,0-1.5,0-2.2,0c-0.2,0-0.3,0-0.3,0.2
		c0,0.5,0,1.1,0,1.6c0,0.6-0.3,0.9-0.9,1c-0.6-0.1-0.9-0.4-0.9-1c0-1.3,0-2.5,0-3.8c0-0.9-0.6-1.5-1.5-1.5c-3.9,0-7.8,0-11.7,0
		c-1,0-1.5,0.6-1.5,1.5c0,3.9,0,7.8,0,11.7c0,0.9,0.6,1.6,1.6,1.5c1.2,0,2.5,0,3.7,0C132.1,20.7,132.4,20.9,132.5,21.5z"/>
	<path class="st0" d="M137.4,12.4c-0.5,0.1-0.8,0-1.1-0.4c-0.8-0.8-1.7-1.7-2.5-2.5c-0.1-0.1-0.3-0.2-0.5-0.2c-1.1,0-2.1,0-3.2,0
		c-0.3,0-0.4,0.1-0.4,0.4c0,2.4,0,4.8,0,7.1c0,0.3,0.1,0.4,0.4,0.4c0.1,0,0.2,0,0.4,0c0.6,0,0.9,0.3,1,0.8c-0.1,0.6-0.4,0.9-0.9,0.9
		c-0.6,0-1.2,0-1.7-0.4c-0.5-0.4-0.8-0.9-0.8-1.5c0-2.5,0-5,0-7.6c0-1,0.9-1.9,1.9-1.9c1.2,0,2.5,0,3.7,0c0.5,0,1,0.2,1.4,0.6
		c0.9,0.9,1.7,1.7,2.6,2.6C138.1,11.4,138.1,11.9,137.4,12.4z"/>
</g>
<g>
	<path class="st0" d="M61.8,15.1c-6.2,0.2-6.7-4.5-6.2-9.3c0-2,4.1-1.8,3.9,0c0,0,0,4.8,0,4.8c0.1,1.8,2.8,2.1,4,1.2
		c1.2-0.6,0.5-5,0.7-6c0-1.9,3.9-1.9,3.9,0c-0.3,5.2,2.1,14.4-6.4,13.9c-1.4,0.2-2.7-1.4-1.4-2.4c1.3-0.7,4.2-0.2,3.9-2.5
		C63.4,15,62.6,15.1,61.8,15.1z"/>
	<path class="st0" d="M76.9,4.4c9.6-0.3,9.6,11.1,0,10.8C67.4,15.5,67.4,4.1,76.9,4.4z M76.9,7.2c-4.4-0.3-4.4,5.3,0,5.1
		C81.4,12.6,81.4,7,76.9,7.2z"/>
	<path class="st0" d="M94,7.6c-0.9,0.4-0.4,2.6-0.5,3.3c-0.3,6.4-12.5,3.8-5.7,1.3c1.6,0.2,1.9-1.5,1.8-2.6C88.5,1.5,104,4.8,94,7.6
		z"/>
	<path class="st0" d="M106.2,15.2c-5.3,0.5-10.4-5.5-5.2-9.2c6.9-4.4,15.5,0.6,12.1,8.8c-5.6,2.4-1.8-5.1-4.4-6.8
		c-2.4-2.2-8.3,0.7-4.9,3.6c1,0.9,2.8,0.5,3.9,1.1C108.9,13.7,107.6,15.3,106.2,15.2z"/>
</g>
<g>
	<path class="st1" d="M47.4,21c-1.2,0-1.2-1.3,0-1.3C48.6,19.7,48.6,21,47.4,21z M48.3,21.6V26h-1.7v-4.5H48.3z"/>
	<path class="st1" d="M51.4,22.2c3.5-2.2,4.4,0.7,4,3.8h-1.7c-0.2-0.9,0.7-3.7-1-3.6c-1.7-0.2-1,2.7-1.1,3.6h-1.7c0-0.9,0-3.6,0-4.4
		h1.5L51.4,22.2L51.4,22.2z"/>
	<path class="st1" d="M57.2,21.6v-0.8l1.7-0.3v1.2h1.4v0.9h-1.4c0.1,1-0.4,3.2,1.3,2.7l0,0.9c-3.3,0.7-3.2-1.4-3.1-3.6h-0.9v-0.9
		H57.2z"/>
	<path class="st1" d="M62.7,24.2c0.1,1.3,2.4,1.1,3.4,0.9l0.2,0.8c-4.3,1.9-8.2-3.6-2.3-4.4c1.8,0,2.9,1.1,2.6,2.7H62.7z M65.1,23.3
		c0.2-1.4-2.4-1.3-2.3,0H65.1z"/>
	<path class="st1" d="M69.4,22.4c0.4-0.7,1.3-1,2-0.8v1.1c-2.2-0.5-1.8,2.1-1.8,3.4h-1.7c0-0.9,0-3.6,0-4.5h1.5L69.4,22.4L69.4,22.4
		z"/>
	<path class="st1" d="M73.9,22.2c3.5-2.2,4.4,0.7,4,3.8h-1.7c-0.2-0.9,0.7-3.7-1-3.6c-1.7-0.2-1,2.7-1.1,3.6h-1.7c0-0.9,0-3.6,0-4.4
		h1.5L73.9,22.2L73.9,22.2z"/>
	<path class="st1" d="M80.8,24.2c0.1,1.3,2.4,1.1,3.4,0.9l0.2,0.8c-4.3,1.9-8.2-3.6-2.3-4.4c1.8,0,2.9,1.1,2.6,2.7H80.8z M83.1,23.3
		c0.2-1.4-2.4-1.3-2.3,0H83.1z"/>
	<path class="st1" d="M86.2,21.6v-0.8l1.7-0.3v1.2h1.4v0.9h-1.4c0.1,1-0.4,3.2,1.3,2.7l0,0.9c-3.3,0.7-3.2-1.4-3.1-3.6h-0.9v-0.9
		H86.2z"/>
	<path class="st1" d="M96.5,21.6h1.8c-1.1,2.3-2.5,6.4-5.2,6.4l-0.4-1c0.6-0.1,2.1-0.8,1.7-1.4c0,0-2.2-4.1-2.2-4.1h1.9
		c0.2,0.6,1.1,2.6,1.3,3.2h0C95.6,24.2,96.3,22.2,96.5,21.6z"/>
	<path class="st1" d="M108.4,21.6h1.7l-1.9,4.5h-1.6c-0.3-0.9-0.9-2.1-1.1-3.1h0c-0.2,1-0.8,2.2-1.1,3.1h-1.6l-1.8-4.5h1.8
		c0.2,0.9,0.7,2.5,0.9,3.4h0c0.2-0.9,0.9-2.5,1.2-3.4h1.4c0.3,0.9,0.9,2.5,1.1,3.4h0C107.6,24.1,108.2,22.5,108.4,21.6z"/>
	<path class="st1" d="M111.9,21c-1.2,0-1.2-1.3,0-1.3C113.2,19.7,113.1,21,111.9,21z M112.8,21.6V26h-1.7v-4.5H112.8z"/>
	<path class="st1" d="M114.6,21.6c-0.2-1.9,2-2.3,3.4-2l-0.1,0.9c-0.9-0.3-1.8,0.3-1.6,1h1.3v0.9h-1.3V26h-1.7v-3.6h-0.9v-0.9H114.6
		z"/>
	<path class="st1" d="M119.4,21c-1.2,0-1.2-1.3,0-1.3C120.6,19.7,120.6,21,119.4,21z M120.2,21.6V26h-1.7v-4.5H120.2z"/>
</g>
<g>
	<g>
		<path class="st0" d="M12.3,27.2c-0.2-0.1-0.3-0.1-0.4-0.2c-0.7-0.2-1.4-0.3-2.1-0.5c-1-0.2-1.9-0.5-2.9-0.8
			c-0.9-0.2-1.7-0.4-2.6-0.7c-0.1,0-0.3-0.1-0.4-0.2c0,0-0.1-0.1-0.1-0.1c0-0.1,0-0.1,0-0.2c0-6.7,0-13.5,0-20.2c0-0.1,0-0.2,0-0.3
			C3.8,4,4,4,4.1,4c1.1-0.3,2.3-0.6,3.4-0.9c0.9-0.2,1.8-0.5,2.7-0.7c0.7-0.2,1.4-0.4,2.1-0.6C12.3,10.3,12.3,18.8,12.3,27.2z"/>
		<path class="st0" d="M13.4,1.8c0.7,0.2,1.4,0.4,2,0.6c0.6,0.2,1.3,0.3,1.9,0.5c1.1,0.3,2.2,0.6,3.3,0.9c0.5,0.1,1,0.3,1.5,0.4
			c0.1,0,0.2,0.1,0.2,0.2c0,1,0,2,0,3.1c0,0,0,0,0,0.1c-0.5-0.1-1-0.2-1.6-0.3c-1-0.1-2-0.3-2.9-0.4c-0.4-0.1-0.6,0.2-0.7,0.6
			c0,0.1,0,0.1,0,0.2c0,4.7,0,9.5,0,14.2c0,0.1,0,0.2,0,0.2c0.1,0.4,0.3,0.6,0.7,0.6c0.4-0.1,0.8-0.1,1.2-0.2
			c0.5-0.1,0.6-0.2,0.6-0.7c0-1.7,0-3.5,0-5.2c0-1,0-2.1,0-3.1c0-0.1,0-0.2,0-0.3c0.9,0,1.8,0.1,2.7,0.1c0,4,0,8,0,12.1
			c-1,0.2-1.9,0.5-2.9,0.7c-1,0.2-1.9,0.5-2.9,0.8c-0.9,0.2-1.7,0.4-2.6,0.7c-0.2,0-0.3,0.1-0.5,0.2C13.4,18.8,13.4,10.3,13.4,1.8z"
			/>
	</g>
</g>
<g>
	<path class="st0" d="M32.8,26.3c0-1.3,0-2.7,0-4c0.6-0.1,1.3-0.2,1.9-0.3c0.7-0.1,1.3-0.2,2-0.3c0.4-0.1,0.8-0.1,1.2-0.2
		c0.3,0,0.4-0.2,0.5-0.5c0-0.1,0-0.3,0-0.4c0-1.3,0-2.7,0-4c0-0.1,0-0.2,0-0.3c0-0.3-0.2-0.5-0.5-0.5c-1.1,0.1-2.1,0.1-3.2,0.2
		C34,16,33.4,16,32.8,16c0-4.8,0-9.5,0-14.3c0.3,0.1,0.5,0.2,0.8,0.2c0.6,0.2,1.2,0.3,1.7,0.5c0.7,0.2,1.4,0.4,2,0.6
		c0.7,0.2,1.5,0.4,2.2,0.6c0.3,0.1,0.7,0.2,1,0.3c0.1,0,0.1,0.1,0.1,0.1c0,1,0,2,0,3c0,0,0,0,0,0.1c-0.3-0.1-0.7-0.1-1-0.2
		c-0.4-0.1-0.7-0.1-1.1-0.2c-0.6-0.1-1.1-0.2-1.7-0.3c-0.1,0-0.3-0.1-0.4,0c-0.2,0.1-0.3,0.3-0.3,0.6c0,1.5,0,3,0,4.6
		c0,0.4,0.2,0.6,0.6,0.6c1.3,0.1,2.5,0.1,3.8,0.2c0,0,0.1,0,0.1,0c0,0.1,0,0.2,0,0.2c0,3.7,0,7.4,0,11.1c0,0.2-0.1,0.3-0.2,0.3
		c-0.6,0.1-1.2,0.3-1.7,0.5c-0.7,0.2-1.3,0.4-2,0.6c-0.7,0.2-1.5,0.4-2.2,0.6c-0.5,0.1-0.9,0.3-1.4,0.4C33,26.2,32.9,26.2,32.8,26.3
		z"/>
	<path class="st0" d="M31.9,16c-2.5-0.1-5-0.3-7.6-0.4c0-3.9,0-7.8,0-11.7c0.5-0.1,1-0.3,1.5-0.4c0.7-0.2,1.5-0.4,2.2-0.6
		c0.3-0.1,0.6-0.2,0.9-0.3c0.8-0.2,1.6-0.4,2.4-0.7c0.2,0,0.3-0.1,0.5-0.2C31.9,6.5,31.9,11.2,31.9,16z"/>
	<path class="st0" d="M31.9,26.3c-0.5-0.2-1-0.3-1.5-0.5c-0.1,0-0.2,0-0.3-0.1c-0.6-0.2-1.2-0.3-1.8-0.5c-0.7-0.2-1.3-0.4-2-0.6
		c-0.6-0.2-1.2-0.4-1.9-0.5c0,0-0.1-0.1-0.1-0.1c0-1,0-2,0-3.1c0.3,0.1,0.5,0.1,0.8,0.1c0.9,0.2,1.9,0.3,2.8,0.5
		c0.6,0.1,1.2,0.2,1.8,0.3c0.6,0.1,1.3,0.2,1.9,0.3c0.1,0,0.2,0.1,0.3,0.1C31.9,23.6,31.9,24.9,31.9,26.3z"/>
	<path class="st0" d="M29.7,17c0.6,0,1.2,0.1,1.8,0.1c0.8,0,1.6,0,2.5,0c1.1-0.1,2.2-0.1,3.4-0.2c0,1.1,0,2.2,0,3.4
		c-0.3,0-0.7-0.1-1-0.1c-0.7-0.1-1.5-0.2-2.2-0.3c-0.8-0.1-1.6-0.2-2.4-0.3c-0.6-0.1-1.3-0.2-1.9-0.3c-0.1,0-0.1-0.1-0.1-0.1
		C29.7,18.4,29.7,17.7,29.7,17z"/>
</g>
</svg>
